<!-- Lucide icons v1.55.0 (ISC License, https://lucide.dev/license) — sprite subset -->
<svg xmlns="http://www.w3.org/2000/svg">
<symbol id="arrow-right" viewBox="0 0 24 24" fill="none" stroke="currentColor" stroke-width="2" stroke-linecap="round" stroke-linejoin="round"><path d="M5 12h14" /> <path d="m12 5 7 7-7 7" /></symbol>
<symbol id="book-open" viewBox="0 0 24 24" fill="none" stroke="currentColor" stroke-width="2" stroke-linecap="round" stroke-linejoin="round"><path d="M12 5v16" /> <path d="M20.001 19A2 2 0 0022 17V5a2 2 0 00-1.999-2L16 3.002A5 5 0 0012 5a5 5 0 00-4-2H4a2 2 0 00-2 2v12a2 2 0 001.999 2H8a5 5 0 014 2 5 5 0 014-2z" /></symbol>
<symbol id="bot" viewBox="0 0 24 24" fill="none" stroke="currentColor" stroke-width="2" stroke-linecap="round" stroke-linejoin="round"><path d="M12 8V4H8" /> <rect width="16" height="12" x="4" y="8" rx="2" /> <path d="M2 14h2" /> <path d="M20 14h2" /> <path d="M15 13v2" /> <path d="M9 13v2" /></symbol>
<symbol id="check" viewBox="0 0 24 24" fill="none" stroke="currentColor" stroke-width="2" stroke-linecap="round" stroke-linejoin="round"><path d="M20 6 9 17l-5-5" /></symbol>
<symbol id="chevron-right" viewBox="0 0 24 24" fill="none" stroke="currentColor" stroke-width="2" stroke-linecap="round" stroke-linejoin="round"><path d="m9 18 6-6-6-6" /></symbol>
<symbol id="circle-check-big" viewBox="0 0 24 24" fill="none" stroke="currentColor" stroke-width="2" stroke-linecap="round" stroke-linejoin="round"><path d="M21.801 10A10 10 0 1 1 17 3.335" /> <path d="m9 11 3 3L22 4" /></symbol>
<symbol id="circle-dashed" viewBox="0 0 24 24" fill="none" stroke="currentColor" stroke-width="2" stroke-linecap="round" stroke-linejoin="round"><path d="M10.1 2.182a10 10 0 0 1 3.8 0" /> <path d="M13.9 21.818a10 10 0 0 1-3.8 0" /> <path d="M17.609 3.721a10 10 0 0 1 2.69 2.7" /> <path d="M2.182 13.9a10 10 0 0 1 0-3.8" /> <path d="M20.279 17.609a10 10 0 0 1-2.7 2.69" /> <path d="M21.818 10.1a10 10 0 0 1 0 3.8" /> <path d="M3.721 6.391a10 10 0 0 1 2.7-2.69" /> <path d="M6.391 20.279a10 10 0 0 1-2.69-2.7" /></symbol>
<symbol id="clock" viewBox="0 0 24 24" fill="none" stroke="currentColor" stroke-width="2" stroke-linecap="round" stroke-linejoin="round"><circle cx="12" cy="12" r="10" /> <path d="M12 6v6l4 2" /></symbol>
<symbol id="filter" viewBox="0 0 24 24" fill="none" stroke="currentColor" stroke-width="2" stroke-linecap="round" stroke-linejoin="round"><path d="M10 20a1 1 0 0 0 .553.895l2 1A1 1 0 0 0 14 21v-7a2 2 0 0 1 .517-1.341L21.74 4.67A1 1 0 0 0 21 3H3a1 1 0 0 0-.742 1.67l7.225 7.989A2 2 0 0 1 10 14z" /></symbol>
<symbol id="flag" viewBox="0 0 24 24" fill="none" stroke="currentColor" stroke-width="2" stroke-linecap="round" stroke-linejoin="round"><path d="M4 22V4a1 1 0 0 1 .4-.8A6 6 0 0 1 8 2c3 0 5 2 7.333 2q2 0 3.067-.8A1 1 0 0 1 20 4v10a1 1 0 0 1-.4.8A6 6 0 0 1 16 16c-3 0-5-2-8-2a6 6 0 0 0-4 1.528" /></symbol>
<symbol id="history" viewBox="0 0 24 24" fill="none" stroke="currentColor" stroke-width="2" stroke-linecap="round" stroke-linejoin="round"><path d="M3 12a9 9 0 1 0 9-9 9.75 9.75 0 0 0-6.74 2.74L3 8" /> <path d="M3 3v5h5" /> <path d="M12 7v5l4 2" /></symbol>
<symbol id="inbox" viewBox="0 0 24 24" fill="none" stroke="currentColor" stroke-width="2" stroke-linecap="round" stroke-linejoin="round"><polyline points="22 12 16 12 14 15 10 15 8 12 2 12" /> <path d="M5.45 5.11 2 12v6a2 2 0 0 0 2 2h16a2 2 0 0 0 2-2v-6l-3.45-6.89A2 2 0 0 0 16.76 4H7.24a2 2 0 0 0-1.79 1.11z" /></symbol>
<symbol id="layers-3" viewBox="0 0 24 24" fill="none" stroke="currentColor" stroke-width="2" stroke-linecap="round" stroke-linejoin="round"><path d="M12.83 2.18a2 2 0 0 0-1.66 0L2.6 6.08a1 1 0 0 0 0 1.83l8.58 3.91a2 2 0 0 0 1.66 0l8.58-3.9a1 1 0 0 0 0-1.83z" /> <path d="M2 12a1 1 0 0 0 .58.91l8.6 3.91a2 2 0 0 0 1.65 0l8.58-3.9A1 1 0 0 0 22 12" /> <path d="M2 17a1 1 0 0 0 .58.91l8.6 3.91a2 2 0 0 0 1.65 0l8.58-3.9A1 1 0 0 0 22 17" /></symbol>
<symbol id="lightbulb" viewBox="0 0 24 24" fill="none" stroke="currentColor" stroke-width="2" stroke-linecap="round" stroke-linejoin="round"><path d="M15 14c.2-1 .7-1.7 1.5-2.5 1-.9 1.5-2.2 1.5-3.5A6 6 0 0 0 6 8c0 1 .2 2.2 1.5 3.5.7.7 1.3 1.5 1.5 2.5" /> <path d="M9 18h6" /> <path d="M10 22h4" /></symbol>
<symbol id="lock" viewBox="0 0 24 24" fill="none" stroke="currentColor" stroke-width="2" stroke-linecap="round" stroke-linejoin="round"><rect width="18" height="11" x="3" y="11" rx="2" ry="2" /> <path d="M7 11V7a5 5 0 0 1 10 0v4" /></symbol>
<symbol id="mail" viewBox="0 0 24 24" fill="none" stroke="currentColor" stroke-width="2" stroke-linecap="round" stroke-linejoin="round"><path d="m22 7-8.991 5.727a2 2 0 0 1-2.009 0L2 7" /> <rect x="2" y="4" width="20" height="16" rx="2" /></symbol>
<symbol id="paperclip" viewBox="0 0 24 24" fill="none" stroke="currentColor" stroke-width="2" stroke-linecap="round" stroke-linejoin="round"><path d="m16 6-8.414 8.586a2 2 0 0 0 2.829 2.829l8.414-8.586a4 4 0 1 0-5.657-5.657l-8.379 8.551a6 6 0 1 0 8.485 8.485l8.379-8.551" /></symbol>
<symbol id="play" viewBox="0 0 24 24" fill="none" stroke="currentColor" stroke-width="2" stroke-linecap="round" stroke-linejoin="round"><path d="M5 5a2 2 0 0 1 3.008-1.728l11.997 6.998a2 2 0 0 1 .003 3.458l-12 7A2 2 0 0 1 5 19z" /></symbol>
<symbol id="plus" viewBox="0 0 24 24" fill="none" stroke="currentColor" stroke-width="2" stroke-linecap="round" stroke-linejoin="round"><path d="M5 12h14" /> <path d="M12 5v14" /></symbol>
<symbol id="repeat-2" viewBox="0 0 24 24" fill="none" stroke="currentColor" stroke-width="2" stroke-linecap="round" stroke-linejoin="round"><path d="m2 9 3-3 3 3" /> <path d="M13 18H7a2 2 0 0 1-2-2V6" /> <path d="m22 15-3 3-3-3" /> <path d="M11 6h6a2 2 0 0 1 2 2v10" /></symbol>
<symbol id="settings" viewBox="0 0 24 24" fill="none" stroke="currentColor" stroke-width="2" stroke-linecap="round" stroke-linejoin="round"><path d="M9.671 4.136a2.34 2.34 0 0 1 4.659 0 2.34 2.34 0 0 0 3.319 1.915 2.34 2.34 0 0 1 2.33 4.033 2.34 2.34 0 0 0 0 3.831 2.34 2.34 0 0 1-2.33 4.033 2.34 2.34 0 0 0-3.319 1.915 2.34 2.34 0 0 1-4.659 0 2.34 2.34 0 0 0-3.32-1.915 2.34 2.34 0 0 1-2.33-4.033 2.34 2.34 0 0 0 0-3.831A2.34 2.34 0 0 1 6.35 6.051a2.34 2.34 0 0 0 3.319-1.915" /> <circle cx="12" cy="12" r="3" /></symbol>
<symbol id="shopping-bag" viewBox="0 0 24 24" fill="none" stroke="currentColor" stroke-width="2" stroke-linecap="round" stroke-linejoin="round"><path d="M16 10a4 4 0 0 1-8 0" /> <path d="M3.103 6.034h17.794" /> <path d="M3.4 5.467a2 2 0 0 0-.4 1.2V20a2 2 0 0 0 2 2h14a2 2 0 0 0 2-2V6.667a2 2 0 0 0-.4-1.2l-2-2.667A2 2 0 0 0 17 2H7a2 2 0 0 0-1.6.8z" /></symbol>
<symbol id="sparkles" viewBox="0 0 24 24" fill="none" stroke="currentColor" stroke-width="2" stroke-linecap="round" stroke-linejoin="round"><path d="M11.017 2.814a1 1 0 0 1 1.966 0l1.051 5.558a2 2 0 0 0 1.594 1.594l5.558 1.051a1 1 0 0 1 0 1.966l-5.558 1.051a2 2 0 0 0-1.594 1.594l-1.051 5.558a1 1 0 0 1-1.966 0l-1.051-5.558a2 2 0 0 0-1.594-1.594l-5.558-1.051a1 1 0 0 1 0-1.966l5.558-1.051a2 2 0 0 0 1.594-1.594z" /> <path d="M20 2v4" /> <path d="M22 4h-4" /> <circle cx="4" cy="20" r="2" /></symbol>
<symbol id="sprout" viewBox="0 0 24 24" fill="none" stroke="currentColor" stroke-width="2" stroke-linecap="round" stroke-linejoin="round"><path d="M14 9.536V7a4 4 0 0 1 4-4h1.5a.5.5 0 0 1 .5.5V5a4 4 0 0 1-4 4 4 4 0 0 0-4 4c0 2 1 3 1 5a5 5 0 0 1-1 3" /> <path d="M4 9a5 5 0 0 1 8 4 5 5 0 0 1-8-4" /> <path d="M5 21h14" /></symbol>
<symbol id="sun" viewBox="0 0 24 24" fill="none" stroke="currentColor" stroke-width="2" stroke-linecap="round" stroke-linejoin="round"><circle cx="12" cy="12" r="4" /> <path d="M12 2v2" /> <path d="M12 20v2" /> <path d="m4.93 4.93 1.41 1.41" /> <path d="m17.66 17.66 1.41 1.41" /> <path d="M2 12h2" /> <path d="M20 12h2" /> <path d="m6.34 17.66-1.41 1.41" /> <path d="m19.07 4.93-1.41 1.41" /></symbol>
<symbol id="target" viewBox="0 0 24 24" fill="none" stroke="currentColor" stroke-width="2" stroke-linecap="round" stroke-linejoin="round"><circle cx="12" cy="12" r="10" /> <circle cx="12" cy="12" r="6" /> <circle cx="12" cy="12" r="2" /></symbol>
<symbol id="trending-up" viewBox="0 0 24 24" fill="none" stroke="currentColor" stroke-width="2" stroke-linecap="round" stroke-linejoin="round"><path d="M16 7h6v6" /> <path d="m22 7-8.5 8.5-5-5L2 17" /></symbol>
<symbol id="upload" viewBox="0 0 24 24" fill="none" stroke="currentColor" stroke-width="2" stroke-linecap="round" stroke-linejoin="round"><path d="M12 3v12" /> <path d="m17 8-5-5-5 5" /> <path d="M21 15v4a2 2 0 0 1-2 2H5a2 2 0 0 1-2-2v-4" /></symbol>
<symbol id="chevron-down" viewBox="0 0 24 24" fill="none" stroke="currentColor" stroke-width="2" stroke-linecap="round" stroke-linejoin="round"><path d="m6 9 6 6 6-6" /></symbol>
<symbol id="list" viewBox="0 0 24 24" fill="none" stroke="currentColor" stroke-width="2" stroke-linecap="round" stroke-linejoin="round"><path d="M3 5h.01" /> <path d="M3 12h.01" /> <path d="M3 19h.01" /> <path d="M8 5h13" /> <path d="M8 12h13" /> <path d="M8 19h13" /></symbol>
<symbol id="layout-grid" viewBox="0 0 24 24" fill="none" stroke="currentColor" stroke-width="2" stroke-linecap="round" stroke-linejoin="round"><rect width="7" height="7" x="3" y="3" rx="1" /> <rect width="7" height="7" x="14" y="3" rx="1" /> <rect width="7" height="7" x="14" y="14" rx="1" /> <rect width="7" height="7" x="3" y="14" rx="1" /></symbol>
<symbol id="table-2" viewBox="0 0 24 24" fill="none" stroke="currentColor" stroke-width="2" stroke-linecap="round" stroke-linejoin="round"><path d="M3 9h18" /> <path d="M9 3v18" /> <rect x="3" y="3" width="18" height="18" rx="2" /></symbol>
<symbol id="search" viewBox="0 0 24 24" fill="none" stroke="currentColor" stroke-width="2" stroke-linecap="round" stroke-linejoin="round"><path d="m21 21-4.34-4.34" /> <circle cx="11" cy="11" r="8" /></symbol>
<symbol id="ellipsis" viewBox="0 0 24 24" fill="none" stroke="currentColor" stroke-width="2" stroke-linecap="round" stroke-linejoin="round"><circle cx="12" cy="12" r="1" /> <circle cx="19" cy="12" r="1" /> <circle cx="5" cy="12" r="1" /></symbol>
<symbol id="calendar" viewBox="0 0 24 24" fill="none" stroke="currentColor" stroke-width="2" stroke-linecap="round" stroke-linejoin="round"><path d="M8 2v3" /> <path d="M16 2v3" /> <rect x="3" y="3" width="18" height="18" rx="2" /> <path d="M3 9h18" /></symbol>
<symbol id="external-link" viewBox="0 0 24 24" fill="none" stroke="currentColor" stroke-width="2" stroke-linecap="round" stroke-linejoin="round"><path d="M15 3h6v6" /> <path d="M10 14 21 3" /> <path d="M18 13v6a2 2 0 0 1-2 2H5a2 2 0 0 1-2-2V8a2 2 0 0 1 2-2h6" /></symbol>
<symbol id="panel-right" viewBox="0 0 24 24" fill="none" stroke="currentColor" stroke-width="2" stroke-linecap="round" stroke-linejoin="round"><rect width="18" height="18" x="3" y="3" rx="2" /> <path d="M15 3v18" /></symbol>
<symbol id="circle" viewBox="0 0 24 24" fill="none" stroke="currentColor" stroke-width="2" stroke-linecap="round" stroke-linejoin="round"><circle cx="12" cy="12" r="10" /></symbol>
<symbol id="arrow-left" viewBox="0 0 24 24" fill="none" stroke="currentColor" stroke-width="2" stroke-linecap="round" stroke-linejoin="round"><path d="m12 19-7-7 7-7" /> <path d="M19 12H5" /></symbol>
<symbol id="link" viewBox="0 0 24 24" fill="none" stroke="currentColor" stroke-width="2" stroke-linecap="round" stroke-linejoin="round"><path d="M10 13a5 5 0 0 0 7.54.54l3-3a5 5 0 0 0-7.07-7.07l-1.72 1.71" /> <path d="M14 11a5 5 0 0 0-7.54-.54l-3 3a5 5 0 0 0 7.07 7.07l1.71-1.71" /></symbol>
<symbol id="image" viewBox="0 0 24 24" fill="none" stroke="currentColor" stroke-width="2" stroke-linecap="round" stroke-linejoin="round"><rect width="18" height="18" x="3" y="3" rx="2" ry="2" /> <circle cx="9" cy="9" r="2" /> <path d="m21 15-3.086-3.086a2 2 0 0 0-2.828 0L6 21" /></symbol>
<symbol id="file-text" viewBox="0 0 24 24" fill="none" stroke="currentColor" stroke-width="2" stroke-linecap="round" stroke-linejoin="round"><path d="M6 22a2 2 0 0 1-2-2V4a2 2 0 0 1 2-2h8a2.4 2.4 0 0 1 1.704.706l3.588 3.588A2.4 2.4 0 0 1 20 8v12a2 2 0 0 1-2 2z" /> <path d="M14 2v5a1 1 0 0 0 1 1h5" /> <path d="M10 9H8" /> <path d="M16 13H8" /> <path d="M16 17H8" /></symbol>
<symbol id="log-out" viewBox="0 0 24 24" fill="none" stroke="currentColor" stroke-width="2" stroke-linecap="round" stroke-linejoin="round"><path d="m16 17 5-5-5-5" /> <path d="M21 12H9" /> <path d="M9 21H5a2 2 0 0 1-2-2V5a2 2 0 0 1 2-2h4" /></symbol>
<symbol id="user" viewBox="0 0 24 24" fill="none" stroke="currentColor" stroke-width="2" stroke-linecap="round" stroke-linejoin="round"><path d="M19 21v-2a4 4 0 0 0-4-4H9a4 4 0 0 0-4 4v2" /> <circle cx="12" cy="7" r="4" /></symbol>
<symbol id="bell" viewBox="0 0 24 24" fill="none" stroke="currentColor" stroke-width="2" stroke-linecap="round" stroke-linejoin="round"><path d="M10.268 21a2 2 0 0 0 3.464 0" /> <path d="M3.262 15.326A1 1 0 0 0 4 17h16a1 1 0 0 0 .74-1.673C19.41 13.956 18 12.499 18 8A6 6 0 0 0 6 8c0 4.499-1.411 5.956-2.738 7.326" /></symbol>
<symbol id="bookmark" viewBox="0 0 24 24" fill="none" stroke="currentColor" stroke-width="2" stroke-linecap="round" stroke-linejoin="round"><path d="M17 3a2 2 0 0 1 2 2v15a1 1 0 0 1-1.496.868l-4.512-2.578a2 2 0 0 0-1.984 0l-4.512 2.578A1 1 0 0 1 5 20V5a2 2 0 0 1 2-2z" /></symbol>
<symbol id="tag" viewBox="0 0 24 24" fill="none" stroke="currentColor" stroke-width="2" stroke-linecap="round" stroke-linejoin="round"><path d="M12.586 2.586A2 2 0 0 0 11.172 2H4a2 2 0 0 0-2 2v7.172a2 2 0 0 0 .586 1.414l8.704 8.704a2.426 2.426 0 0 0 3.42 0l6.58-6.58a2.426 2.426 0 0 0 0-3.42z" /> <circle cx="7.5" cy="7.5" r=".5" fill="currentColor" /></symbol>
<symbol id="x" viewBox="0 0 24 24" fill="none" stroke="currentColor" stroke-width="2" stroke-linecap="round" stroke-linejoin="round"><path d="M18 6 6 18" /> <path d="m6 6 12 12" /></symbol>
<symbol id="server" viewBox="0 0 24 24" fill="none" stroke="currentColor" stroke-width="2" stroke-linecap="round" stroke-linejoin="round"><rect width="20" height="8" x="2" y="2" rx="2" ry="2" /> <rect width="20" height="8" x="2" y="14" rx="2" ry="2" /> <line x1="6" x2="6.01" y1="6" y2="6" /> <line x1="6" x2="6.01" y1="18" y2="18" /></symbol>
<symbol id="cpu" viewBox="0 0 24 24" fill="none" stroke="currentColor" stroke-width="2" stroke-linecap="round" stroke-linejoin="round"><path d="M12 20v2" /> <path d="M12 2v2" /> <path d="M17 20v2" /> <path d="M17 2v2" /> <path d="M2 12h2" /> <path d="M2 17h2" /> <path d="M2 7h2" /> <path d="M20 12h2" /> <path d="M20 17h2" /> <path d="M20 7h2" /> <path d="M7 20v2" /> <path d="M7 2v2" /> <rect x="4" y="4" width="16" height="16" rx="2" /> <rect x="8" y="8" width="8" height="8" rx="1" /></symbol>
<symbol id="activity" viewBox="0 0 24 24" fill="none" stroke="currentColor" stroke-width="2" stroke-linecap="round" stroke-linejoin="round"><path d="M22 12h-2.48a2 2 0 0 0-1.93 1.46l-2.35 8.36a.25.25 0 0 1-.48 0L9.24 2.18a.25.25 0 0 0-.48 0l-2.35 8.36A2 2 0 0 1 4.49 12H2" /></symbol>
<symbol id="git-commit-horizontal" viewBox="0 0 24 24" fill="none" stroke="currentColor" stroke-width="2" stroke-linecap="round" stroke-linejoin="round"><circle cx="12" cy="12" r="3" /> <line x1="3" x2="9" y1="12" y2="12" /> <line x1="15" x2="21" y1="12" y2="12" /></symbol>
<symbol id="triangle-alert" viewBox="0 0 24 24" fill="none" stroke="currentColor" stroke-width="2" stroke-linecap="round" stroke-linejoin="round"><path d="m21.73 18-8-14a2 2 0 0 0-3.48 0l-8 14A2 2 0 0 0 4 21h16a2 2 0 0 0 1.73-3" /> <path d="M12 9v4" /> <path d="M12 17h.01" /></symbol>
<symbol id="refresh-cw" viewBox="0 0 24 24" fill="none" stroke="currentColor" stroke-width="2" stroke-linecap="round" stroke-linejoin="round"><path d="M3 12a9 9 0 0 1 9-9 9.75 9.75 0 0 1 6.74 2.74L21 8" /> <path d="M21 3v5h-5" /> <path d="M21 12a9 9 0 0 1-9 9 9.75 9.75 0 0 1-6.74-2.74L3 16" /> <path d="M8 16H3v5" /></symbol>
<symbol id="send" viewBox="0 0 24 24" fill="none" stroke="currentColor" stroke-width="2" stroke-linecap="round" stroke-linejoin="round"><path d="M14.536 21.686a.5.5 0 0 0 .937-.024l6.5-19a.496.496 0 0 0-.635-.635l-19 6.5a.5.5 0 0 0-.024.937l7.93 3.18a2 2 0 0 1 1.112 1.11z" /> <path d="m21.854 2.147-10.94 10.939" /></symbol>
<symbol id="pencil-line" viewBox="0 0 24 24" fill="none" stroke="currentColor" stroke-width="2" stroke-linecap="round" stroke-linejoin="round"><path d="M13 21h8" /> <path d="m15 5 4 4" /> <path d="M21.174 6.812a1 1 0 0 0-3.986-3.987L3.842 16.174a2 2 0 0 0-.5.83l-1.321 4.352a.5.5 0 0 0 .623.622l4.353-1.32a2 2 0 0 0 .83-.497z" /></symbol>
<symbol id="zap" viewBox="0 0 24 24" fill="none" stroke="currentColor" stroke-width="2" stroke-linecap="round" stroke-linejoin="round"><path d="M15.914 4a1.5 1.5 0 00-2.474-1.561l-9 9A1.5 1.5 0 005.5 14h4.002a.5.5 0 01.471.666L8.086 20a1.5 1.5 0 002.475 1.56l9-9A1.5 1.5 0 0018.5 10h-3.997a.5.5 0 01-.472-.667z" /></symbol>
<symbol id="map" viewBox="0 0 24 24" fill="none" stroke="currentColor" stroke-width="2" stroke-linecap="round" stroke-linejoin="round"><path d="M14.106 5.553a2 2 0 0 0 1.788 0l3.659-1.83A1 1 0 0 1 21 4.619v12.764a1 1 0 0 1-.553.894l-4.553 2.277a2 2 0 0 1-1.788 0l-4.212-2.106a2 2 0 0 0-1.788 0l-3.659 1.83A1 1 0 0 1 3 19.381V6.618a1 1 0 0 1 .553-.894l4.553-2.277a2 2 0 0 1 1.788 0z" /> <path d="M15 5.764v15" /> <path d="M9 3.236v15" /></symbol>
<symbol id="circle-alert" viewBox="0 0 24 24" fill="none" stroke="currentColor" stroke-width="2" stroke-linecap="round" stroke-linejoin="round"><circle cx="12" cy="12" r="10" /> <line x1="12" x2="12" y1="8" y2="12" /> <line x1="12" x2="12.01" y1="16" y2="16" /></symbol>
<symbol id="list-checks" viewBox="0 0 24 24" fill="none" stroke="currentColor" stroke-width="2" stroke-linecap="round" stroke-linejoin="round"><path d="M13 5h8" /> <path d="M13 12h8" /> <path d="M13 19h8" /> <path d="m3 17 2 2 4-4" /> <path d="m3 7 2 2 4-4" /></symbol>
<symbol id="calendar-days" viewBox="0 0 24 24" fill="none" stroke="currentColor" stroke-width="2" stroke-linecap="round" stroke-linejoin="round"><path d="M8 2v3" /> <path d="M16 2v3" /> <rect x="3" y="3" width="18" height="18" rx="2" /> <path d="M3 9h18" /> <path d="M8 13h.01" /> <path d="M12 13h.01" /> <path d="M16 13h.01" /> <path d="M8 17h.01" /> <path d="M12 17h.01" /> <path d="M16 17h.01" /></symbol>
<symbol id="eye" viewBox="0 0 24 24" fill="none" stroke="currentColor" stroke-width="2" stroke-linecap="round" stroke-linejoin="round"><path d="M2.062 12.348a1 1 0 0 1 0-.696 10.75 10.75 0 0 1 19.876 0 1 1 0 0 1 0 .696 10.75 10.75 0 0 1-19.876 0" /> <circle cx="12" cy="12" r="3" /></symbol>
<symbol id="shield-check" viewBox="0 0 24 24" fill="none" stroke="currentColor" stroke-width="2" stroke-linecap="round" stroke-linejoin="round"><path d="M20 13c0 5-3.5 7.5-7.66 8.95a1 1 0 0 1-.67-.01C7.5 20.5 4 18 4 13V6a1 1 0 0 1 1-1c2 0 4.5-1.2 6.24-2.72a1.17 1.17 0 0 1 1.52 0C14.51 3.81 17 5 19 5a1 1 0 0 1 1 1z" /> <path d="m9 12 2 2 4-4" /></symbol>
<symbol id="brain" viewBox="0 0 24 24" fill="none" stroke="currentColor" stroke-width="2" stroke-linecap="round" stroke-linejoin="round"><path d="M12 18V5" /> <path d="M15 13a4.17 4.17 0 0 1-3-4 4.17 4.17 0 0 1-3 4" /> <path d="M17.598 6.5A3 3 0 1 0 12 5a3 3 0 1 0-5.598 1.5" /> <path d="M17.997 5.125a4 4 0 0 1 2.526 5.77" /> <path d="M18 18a4 4 0 0 0 2-7.464" /> <path d="M19.967 17.483A4 4 0 1 1 12 18a4 4 0 1 1-7.967-.517" /> <path d="M6 18a4 4 0 0 1-2-7.464" /> <path d="M6.003 5.125a4 4 0 0 0-2.526 5.77" /></symbol>
<symbol id="puzzle" viewBox="0 0 24 24" fill="none" stroke="currentColor" stroke-width="2" stroke-linecap="round" stroke-linejoin="round"><path d="M15.39 4.39a1 1 0 0 0 1.68-.474 2.5 2.5 0 1 1 3.014 3.015 1 1 0 0 0-.474 1.68l1.683 1.682a2.414 2.414 0 0 1 0 3.414L19.61 15.39a1 1 0 0 1-1.68-.474 2.5 2.5 0 1 0-3.014 3.015 1 1 0 0 1 .474 1.68l-1.683 1.682a2.414 2.414 0 0 1-3.414 0L8.61 19.61a1 1 0 0 0-1.68.474 2.5 2.5 0 1 1-3.014-3.015 1 1 0 0 0 .474-1.68l-1.683-1.682a2.414 2.414 0 0 1 0-3.414L4.39 8.61a1 1 0 0 1 1.68.474 2.5 2.5 0 1 0 3.014-3.015 1 1 0 0 1-.474-1.68l1.683-1.682a2.414 2.414 0 0 1 3.414 0z" /></symbol>
<symbol id="graduation-cap" viewBox="0 0 24 24" fill="none" stroke="currentColor" stroke-width="2" stroke-linecap="round" stroke-linejoin="round"><path d="M21.42 10.922a1 1 0 0 0-.019-1.838L12.83 5.18a2 2 0 0 0-1.66 0L2.6 9.08a1 1 0 0 0 0 1.832l8.57 3.908a2 2 0 0 0 1.66 0z" /> <path d="M22 10v6" /> <path d="M6 12.5V16a6 3 0 0 0 12 0v-3.5" /></symbol>
<symbol id="notebook-pen" viewBox="0 0 24 24" fill="none" stroke="currentColor" stroke-width="2" stroke-linecap="round" stroke-linejoin="round"><path d="M13.4 2H6a2 2 0 0 0-2 2v16a2 2 0 0 0 2 2h12a2 2 0 0 0 2-2v-7.4" /> <path d="M2 6h4" /> <path d="M2 10h4" /> <path d="M2 14h4" /> <path d="M2 18h4" /> <path d="M21.378 5.626a1 1 0 1 0-3.004-3.004l-5.01 5.012a2 2 0 0 0-.506.854l-.837 2.87a.5.5 0 0 0 .62.62l2.87-.837a2 2 0 0 0 .854-.506z" /></symbol>
<symbol id="rotate-ccw" viewBox="0 0 24 24" fill="none" stroke="currentColor" stroke-width="2" stroke-linecap="round" stroke-linejoin="round"><path d="M3 12a9 9 0 1 0 9-9 9.75 9.75 0 0 0-6.74 2.74L3 8" /> <path d="M3 3v5h5" /></symbol>
<symbol id="pause" viewBox="0 0 24 24" fill="none" stroke="currentColor" stroke-width="2" stroke-linecap="round" stroke-linejoin="round"><rect x="14" y="3" width="5" height="18" rx="1" /> <rect x="5" y="3" width="5" height="18" rx="1" /></symbol>
<symbol id="folder-open" viewBox="0 0 24 24" fill="none" stroke="currentColor" stroke-width="2" stroke-linecap="round" stroke-linejoin="round"><path d="m6 14 1.5-2.9A2 2 0 0 1 9.24 10H20a2 2 0 0 1 1.94 2.5l-1.54 6a2 2 0 0 1-1.95 1.5H4a2 2 0 0 1-2-2V5a2 2 0 0 1 2-2h3.9a2 2 0 0 1 1.69.9l.81 1.2a2 2 0 0 0 1.67.9H18a2 2 0 0 1 2 2v2" /></symbol>
<symbol id="message-square-text" viewBox="0 0 24 24" fill="none" stroke="currentColor" stroke-width="2" stroke-linecap="round" stroke-linejoin="round"><path d="M22 17a2 2 0 0 1-2 2H6.828a2 2 0 0 0-1.414.586l-2.202 2.202A.71.71 0 0 1 2 21.286V5a2 2 0 0 1 2-2h16a2 2 0 0 1 2 2z" /> <path d="M7 11h10" /> <path d="M7 15h6" /> <path d="M7 7h8" /></symbol>
<symbol id="chart-column-increasing" viewBox="0 0 24 24" fill="none" stroke="currentColor" stroke-width="2" stroke-linecap="round" stroke-linejoin="round"><path d="M13 17V9" /> <path d="M18 17V5" /> <path d="M3 3v16a2 2 0 0 0 2 2h16" /> <path d="M8 17v-3" /></symbol>
<symbol id="timer" viewBox="0 0 24 24" fill="none" stroke="currentColor" stroke-width="2" stroke-linecap="round" stroke-linejoin="round"><line x1="10" x2="14" y1="2" y2="2" /> <line x1="12" x2="15" y1="14" y2="11" /> <circle cx="12" cy="14" r="8" /></symbol>
<symbol id="dumbbell" viewBox="0 0 24 24" fill="none" stroke="currentColor" stroke-width="2" stroke-linecap="round" stroke-linejoin="round"><path d="M17.596 12.768a2 2 0 1 0 2.829-2.829l-1.768-1.767a2 2 0 0 0 2.828-2.829l-2.828-2.828a2 2 0 0 0-2.829 2.828l-1.767-1.768a2 2 0 1 0-2.829 2.829z" /> <path d="m2.5 21.5 1.4-1.4" /> <path d="m20.1 3.9 1.4-1.4" /> <path d="M5.343 21.485a2 2 0 1 0 2.829-2.828l1.767 1.768a2 2 0 1 0 2.829-2.829l-6.364-6.364a2 2 0 1 0-2.829 2.829l1.768 1.767a2 2 0 0 0-2.828 2.829z" /> <path d="m9.6 14.4 4.8-4.8" /></symbol>
<symbol id="lightbulb-off" viewBox="0 0 24 24" fill="none" stroke="currentColor" stroke-width="2" stroke-linecap="round" stroke-linejoin="round"><path d="M16.8 11.2c.8-.9 1.2-2 1.2-3.2a6 6 0 0 0-9.3-5" /> <path d="m2 2 20 20" /> <path d="M6.3 6.3a4.67 4.67 0 0 0 1.2 5.2c.7.7 1.3 1.5 1.5 2.5" /> <path d="M9 18h6" /> <path d="M10 22h4" /></symbol>
<symbol id="info" viewBox="0 0 24 24" fill="none" stroke="currentColor" stroke-width="2" stroke-linecap="round" stroke-linejoin="round"><circle cx="12" cy="12" r="10" /> <path d="M12 16v-4" /> <path d="M12 8h.01" /></symbol>
<symbol id="key-round" viewBox="0 0 24 24" fill="none" stroke="currentColor" stroke-width="2" stroke-linecap="round" stroke-linejoin="round"><path d="M2.586 17.414A2 2 0 0 0 2 18.828V21a1 1 0 0 0 1 1h3a1 1 0 0 0 1-1v-1a1 1 0 0 1 1-1h1a1 1 0 0 0 1-1v-1a1 1 0 0 1 1-1h.172a2 2 0 0 0 1.414-.586l.814-.814a6.5 6.5 0 1 0-4-4z" /> <circle cx="16.5" cy="7.5" r=".5" fill="currentColor" /></symbol>
<symbol id="smartphone" viewBox="0 0 24 24" fill="none" stroke="currentColor" stroke-width="2" stroke-linecap="round" stroke-linejoin="round"><rect width="14" height="20" x="5" y="2" rx="2" ry="2" /> <path d="M12 18h.01" /></symbol>
<symbol id="moon" viewBox="0 0 24 24" fill="none" stroke="currentColor" stroke-width="2" stroke-linecap="round" stroke-linejoin="round"><path d="M20.985 12.486a9 9 0 1 1-9.473-9.472c.405-.022.617.46.402.803a6 6 0 0 0 8.268 8.268c.344-.215.825-.004.803.401" /></symbol>
<symbol id="type" viewBox="0 0 24 24" fill="none" stroke="currentColor" stroke-width="2" stroke-linecap="round" stroke-linejoin="round"><path d="M12 4v16" /> <path d="M4 7V5a1 1 0 0 1 1-1h14a1 1 0 0 1 1 1v2" /> <path d="M9 20h6" /></symbol>
<symbol id="hourglass" viewBox="0 0 24 24" fill="none" stroke="currentColor" stroke-width="2" stroke-linecap="round" stroke-linejoin="round"><path d="M5 22h14" /> <path d="M5 2h14" /> <path d="M17 22v-4.172a2 2 0 0 0-.586-1.414L12 12l-4.414 4.414A2 2 0 0 0 7 17.828V22" /> <path d="M7 2v4.172a2 2 0 0 0 .586 1.414L12 12l4.414-4.414A2 2 0 0 0 17 6.172V2" /></symbol>
<symbol id="circle-x" viewBox="0 0 24 24" fill="none" stroke="currentColor" stroke-width="2" stroke-linecap="round" stroke-linejoin="round"><circle cx="12" cy="12" r="10" /> <path d="m15 9-6 6" /> <path d="m9 9 6 6" /></symbol>
<symbol id="share-2" viewBox="0 0 24 24" fill="none" stroke="currentColor" stroke-width="2" stroke-linecap="round" stroke-linejoin="round"><circle cx="18" cy="5" r="3" /> <circle cx="6" cy="12" r="3" /> <circle cx="18" cy="19" r="3" /> <path d="m8.59 13.51 6.83 3.98" /> <path d="m15.41 6.51-6.82 3.98" /></symbol>
<symbol id="copy" viewBox="0 0 24 24" fill="none" stroke="currentColor" stroke-width="2" stroke-linecap="round" stroke-linejoin="round"><rect width="14" height="14" x="8" y="8" rx="2" ry="2" /> <path d="M4 16c-1.1 0-2-.9-2-2V4c0-1.1.9-2 2-2h10c1.1 0 2 .9 2 2" /></symbol>
<symbol id="trash-2" viewBox="0 0 24 24" fill="none" stroke="currentColor" stroke-width="2" stroke-linecap="round" stroke-linejoin="round"><path d="M3 6h18" /> <path d="M19 6v14c0 1-1 2-2 2H7c-1 0-2-1-2-2V6" /> <path d="M8 6V4c0-1 1-2 2-2h4c1 0 2 1 2 2" /> <path d="M10 11v6" /> <path d="M14 11v6" /></symbol>
<symbol id="chevron-left" viewBox="0 0 24 24" fill="none" stroke="currentColor" stroke-width="2" stroke-linecap="round" stroke-linejoin="round"><path d="m15 18-6-6 6-6" /></symbol>
<symbol id="chevron-up" viewBox="0 0 24 24" fill="none" stroke="currentColor" stroke-width="2" stroke-linecap="round" stroke-linejoin="round"><path d="m18 15-6-6-6 6" /></symbol>
</svg>
